<?xml version="1.0" encoding="UTF-8" standalone="no"?>
<svg width="32px" height="33px" viewBox="0 0 32 33" version="1.1" xmlns="http://www.w3.org/2000/svg" xmlns:xlink="http://www.w3.org/1999/xlink" xmlns:sketch="http://www.bohemiancoding.com/sketch/ns">
    <!-- Generator: Sketch 3.2.2 (9983) - http://www.bohemiancoding.com/sketch -->
    <title>Shape</title>
    <desc>Created with Sketch.</desc>
    <defs></defs>
    <g id="Page-1" stroke="none" stroke-width="1" fill="none" fill-rule="evenodd" sketch:type="MSPage">
        <g id="oldIcons" sketch:type="MSArtboardGroup" transform="translate(-277.000000, -25.000000)" fill="#979797">
            <path d="M297.520477,42.7220472 C297.700914,42.7220472 298.377775,43.027332 299.551059,43.6379015 C300.724344,44.2484711 301.345651,44.6158777 301.414982,44.7401215 C301.442536,44.8093431 301.456313,44.9131754 301.456313,45.0516185 C301.456313,45.5095457 301.338096,46.0366944 301.101661,46.6330646 C300.879448,47.1735252 300.38658,47.6274588 299.623056,47.9948654 C298.859533,48.3622721 298.151118,48.5459754 297.497812,48.5459754 C296.705845,48.5459754 295.386344,48.1160031 293.53931,47.2560585 C292.178478,46.6321772 290.998083,45.813943 289.998125,44.801356 C288.998166,43.788769 287.970654,42.5059517 286.915586,40.9529042 C285.915628,39.4690782 285.42276,38.1241391 285.436981,36.9180867 L285.436981,36.7516888 C285.478757,35.4897267 285.992514,34.3941626 286.97825,33.4649965 C287.31157,33.1597117 287.672444,33.0070693 288.060872,33.0070693 C288.144424,33.0070693 288.269308,33.0172751 288.435523,33.0376866 C288.601738,33.058098 288.733733,33.0683038 288.831506,33.0683038 C289.095495,33.0683038 289.279488,33.113564 289.383483,33.2040845 C289.487479,33.294605 289.59503,33.485408 289.706137,33.7764934 C289.817243,34.0542671 290.046567,34.6643929 290.394108,35.6068709 C290.741649,36.5493489 290.91542,37.0693979 290.91542,37.1670181 C290.91542,37.4581035 290.675874,37.8565712 290.196783,38.3624209 C289.717692,38.8682707 289.478146,39.1908609 289.478146,39.3301914 C289.478146,39.4269241 289.512811,39.5307564 289.582142,39.6416884 C290.054122,40.6542754 290.762537,41.6042967 291.707387,42.4917524 C292.485132,43.2265658 293.533533,43.9267684 294.852589,44.5923602 C295.018804,44.6890928 295.171686,44.7374592 295.311236,44.7374592 C295.519228,44.7374592 295.894323,44.4011135 296.436523,43.728422 C296.978722,43.0557306 297.339596,42.7193848 297.519144,42.7193848 L297.520477,42.7220472 Z M293.29132,53.7455786 C295.054802,53.7455786 296.745843,53.3990271 298.364442,52.7059242 C299.983041,52.0128213 301.375428,51.0836551 302.541601,49.9184257 C303.707775,48.7531964 304.638403,47.362997 305.333485,45.7478275 C306.028567,44.1326581 306.375664,42.4442736 306.374775,40.6826739 C306.373886,38.9210743 306.026789,37.2326898 305.333485,35.6175204 C304.64018,34.0023509 303.709553,32.6121515 302.541601,31.4469222 C301.37365,30.2816928 299.981264,29.3525266 298.364442,28.6594237 C296.747621,27.9663208 295.05658,27.6197693 293.29132,27.6197693 C291.526061,27.6197693 289.83502,27.9663208 288.218199,28.6594237 C286.601377,29.3525266 285.208991,30.2816928 284.04104,31.4469222 C282.873088,32.6121515 281.942461,34.0023509 281.249156,35.6175204 C280.555852,37.2326898 280.208755,38.9210743 280.207866,40.6826739 C280.207866,43.4976835 281.041165,46.0491187 282.707762,48.3369796 L281.062497,53.1838191 L286.10362,51.5824052 C288.298195,53.0245208 290.694095,53.7455786 293.29132,53.7455786 L293.29132,53.7455786 Z M293.29132,25 C295.416565,25 297.447592,25.4162167 299.3844,26.2486502 C301.321208,27.0810837 302.99136,28.197503 304.394857,29.5979081 C305.798354,30.9983133 306.91653,32.6658426 307.749384,34.6004961 C308.582238,36.5351496 308.99911,38.5629859 308.999999,40.6840051 C309.000887,42.8050243 308.584016,44.8328607 307.749384,46.7675142 C306.914752,48.7021677 305.796577,50.369697 304.394857,51.7701021 C302.993138,53.1705073 301.322985,54.2869266 299.3844,55.11936 C297.445814,55.9517935 295.414787,56.3680103 293.29132,56.3680103 C290.582989,56.3680103 288.048428,55.716174 285.687638,54.4125016 L277,57.2 L279.833215,48.7762702 C278.333722,46.3082558 277.583976,43.6112779 277.583976,40.6853363 C277.583976,38.5634297 278.000847,36.5355933 278.83459,34.6018273 C279.668333,32.6680612 280.786509,31.0005319 282.189117,29.5992393 C283.591725,28.1979467 285.261878,27.0815274 287.199575,26.2499814 C289.137272,25.4184354 291.168298,25.0022186 293.292654,25.0013312 L293.29132,25 Z" id="Shape" sketch:type="MSShapeGroup"></path>
        </g>
    </g>
</svg>